<?xml version="1.0" encoding="utf-8"?>
<!-- Generator: Adobe Illustrator 16.0.0, SVG Export Plug-In . SVG Version: 6.00 Build 0)  -->
<!DOCTYPE svg PUBLIC "-//W3C//DTD SVG 1.1//EN" "http://www.w3.org/Graphics/SVG/1.1/DTD/svg11.dtd">
<svg version="1.1" id="Layer_1" xmlns="http://www.w3.org/2000/svg" xmlns:xlink="http://www.w3.org/1999/xlink" x="0px" y="0px"
	 width="25.887px" height="25.861px" viewBox="0 0.001 25.887 25.861" enable-background="new 0 0.001 25.887 25.861"
	 xml:space="preserve">
<path fill="#278150" d="M25.202,0.671c2.855,10.683-3.487,21.656-14.17,24.513c-3.391,0.905-6.96,0.905-10.351-0.003
	C-2.168,14.497,4.181,3.527,14.865,0.677c3.388-0.903,6.951-0.901,10.338,0.004V0.671z M3.563,23.719
	c9.858,1.283,18.889-5.672,20.17-15.527c0.201-1.541,0.201-3.101,0-4.642L3.563,23.719z M10.763,4.551v9.15l11.55-11.562
	c-3.959-0.5-8.05,0.301-11.57,2.4L10.763,4.551z M7.274,7.271c-4.101,4.1-5.811,9.688-5.131,15.028l6.61-6.6V5.941
	C8.241,6.351,7.753,6.791,7.274,7.271z"/>
</svg>
